<mxfile host="app.diagrams.net" modified="2023-10-11T05:46:01.452Z" agent="Mozilla/5.0 (X11; Linux x86_64) AppleWebKit/537.36 (KHTML, like Gecko) Chrome/117.0.0.0 Safari/537.36 Edg/117.0.2045.55" version="22.0.4" etag="A37y2mRkMrVk54P_kLlT" type="github">
  <diagram name="Page-1" id="Q7Y7eHiBRmLkaa1pILmO">
    <mxGraphModel>
      <root>
        <mxCell id="0" />
        <mxCell id="1" parent="0" />
        <mxCell id="2" value="ENTITY" style="shape=table;startSize=75;container=1;collapsible=0;childLayout=tableLayout;fixedRows=1;rowLines=1;fontStyle=1;align=center;resizeLast=1;" vertex="1" parent="1">
          <mxGeometry x="20" y="47" width="100" height="75" as="geometry" />
        </mxCell>
        <mxCell id="3" value="User" style="shape=table;startSize=25;container=1;collapsible=0;childLayout=tableLayout;fixedRows=1;rowLines=1;fontStyle=1;align=center;resizeLast=1;" vertex="1" parent="1">
          <mxGeometry x="220" y="20" width="100" height="129" as="geometry" />
        </mxCell>
        <mxCell id="4" style="shape=tableRow;horizontal=0;startSize=0;swimlaneHead=0;swimlaneBody=0;fillColor=none;collapsible=0;dropTarget=0;points=[[0,0.5],[1,0.5]];portConstraint=eastwest;top=0;left=0;right=0;bottom=0;" vertex="1" parent="3">
          <mxGeometry y="21" width="100" height="21" as="geometry" />
        </mxCell>
        <mxCell id="5" value="string" style="shape=partialRectangle;connectable=0;fillColor=none;top=0;left=0;bottom=0;right=0;align=left;spacingLeft=2;overflow=hidden;fontSize=11;" vertex="1" parent="4">
          <mxGeometry width="36" height="21" as="geometry" />
        </mxCell>
        <mxCell id="6" value="user_id" style="shape=partialRectangle;connectable=0;fillColor=none;top=0;left=0;bottom=0;right=0;align=left;spacingLeft=2;overflow=hidden;fontSize=11;" vertex="1" parent="4">
          <mxGeometry width="64" height="21" as="geometry" />
        </mxCell>
        <mxCell id="7" style="shape=tableRow;horizontal=0;startSize=0;swimlaneHead=0;swimlaneBody=0;fillColor=none;collapsible=0;dropTarget=0;points=[[0,0.5],[1,0.5]];portConstraint=eastwest;top=0;left=0;right=0;bottom=0;" vertex="1" parent="3">
          <mxGeometry y="42" width="100" height="21" as="geometry" />
        </mxCell>
        <mxCell id="8" value="string" style="shape=partialRectangle;connectable=0;fillColor=none;top=0;left=0;bottom=0;right=0;align=left;spacingLeft=2;overflow=hidden;fontSize=11;" vertex="1" parent="7">
          <mxGeometry width="36" height="21" as="geometry" />
        </mxCell>
        <mxCell id="9" value="username" style="shape=partialRectangle;connectable=0;fillColor=none;top=0;left=0;bottom=0;right=0;align=left;spacingLeft=2;overflow=hidden;fontSize=11;" vertex="1" parent="7">
          <mxGeometry width="64" height="21" as="geometry" />
        </mxCell>
        <mxCell id="10" style="shape=tableRow;horizontal=0;startSize=0;swimlaneHead=0;swimlaneBody=0;fillColor=none;collapsible=0;dropTarget=0;points=[[0,0.5],[1,0.5]];portConstraint=eastwest;top=0;left=0;right=0;bottom=0;" vertex="1" parent="3">
          <mxGeometry y="62" width="100" height="21" as="geometry" />
        </mxCell>
        <mxCell id="11" value="string" style="shape=partialRectangle;connectable=0;fillColor=none;top=0;left=0;bottom=0;right=0;align=left;spacingLeft=2;overflow=hidden;fontSize=11;" vertex="1" parent="10">
          <mxGeometry width="36" height="21" as="geometry" />
        </mxCell>
        <mxCell id="12" value="password" style="shape=partialRectangle;connectable=0;fillColor=none;top=0;left=0;bottom=0;right=0;align=left;spacingLeft=2;overflow=hidden;fontSize=11;" vertex="1" parent="10">
          <mxGeometry width="64" height="21" as="geometry" />
        </mxCell>
        <mxCell id="13" style="shape=tableRow;horizontal=0;startSize=0;swimlaneHead=0;swimlaneBody=0;fillColor=none;collapsible=0;dropTarget=0;points=[[0,0.5],[1,0.5]];portConstraint=eastwest;top=0;left=0;right=0;bottom=0;" vertex="1" parent="3">
          <mxGeometry y="83" width="100" height="21" as="geometry" />
        </mxCell>
        <mxCell id="14" value="string" style="shape=partialRectangle;connectable=0;fillColor=none;top=0;left=0;bottom=0;right=0;align=left;spacingLeft=2;overflow=hidden;fontSize=11;" vertex="1" parent="13">
          <mxGeometry width="36" height="21" as="geometry" />
        </mxCell>
        <mxCell id="15" value="email" style="shape=partialRectangle;connectable=0;fillColor=none;top=0;left=0;bottom=0;right=0;align=left;spacingLeft=2;overflow=hidden;fontSize=11;" vertex="1" parent="13">
          <mxGeometry width="64" height="21" as="geometry" />
        </mxCell>
        <mxCell id="16" style="shape=tableRow;horizontal=0;startSize=0;swimlaneHead=0;swimlaneBody=0;fillColor=none;collapsible=0;dropTarget=0;points=[[0,0.5],[1,0.5]];portConstraint=eastwest;top=0;left=0;right=0;bottom=0;" vertex="1" parent="3">
          <mxGeometry y="104" width="100" height="21" as="geometry" />
        </mxCell>
        <mxCell id="17" value="string" style="shape=partialRectangle;connectable=0;fillColor=none;top=0;left=0;bottom=0;right=0;align=left;spacingLeft=2;overflow=hidden;fontSize=11;" vertex="1" parent="16">
          <mxGeometry width="36" height="21" as="geometry" />
        </mxCell>
        <mxCell id="18" value="phone" style="shape=partialRectangle;connectable=0;fillColor=none;top=0;left=0;bottom=0;right=0;align=left;spacingLeft=2;overflow=hidden;fontSize=11;" vertex="1" parent="16">
          <mxGeometry width="64" height="21" as="geometry" />
        </mxCell>
        <mxCell id="19" value="Book" style="shape=table;startSize=25;container=1;collapsible=0;childLayout=tableLayout;fixedRows=1;rowLines=1;fontStyle=1;align=center;resizeLast=1;" vertex="1" parent="1">
          <mxGeometry x="469" y="31" width="132" height="108" as="geometry" />
        </mxCell>
        <mxCell id="20" style="shape=tableRow;horizontal=0;startSize=0;swimlaneHead=0;swimlaneBody=0;fillColor=none;collapsible=0;dropTarget=0;points=[[0,0.5],[1,0.5]];portConstraint=eastwest;top=0;left=0;right=0;bottom=0;" vertex="1" parent="19">
          <mxGeometry y="21" width="120" height="21" as="geometry" />
        </mxCell>
        <mxCell id="21" value="string" style="shape=partialRectangle;connectable=0;fillColor=none;top=0;left=0;bottom=0;right=0;align=left;spacingLeft=2;overflow=hidden;fontSize=11;" vertex="1" parent="20">
          <mxGeometry width="36" height="21" as="geometry" />
        </mxCell>
        <mxCell id="22" value="book_id" style="shape=partialRectangle;connectable=0;fillColor=none;top=0;left=0;bottom=0;right=0;align=left;spacingLeft=2;overflow=hidden;fontSize=11;" vertex="1" parent="20">
          <mxGeometry width="96" height="21" as="geometry" />
        </mxCell>
        <mxCell id="23" style="shape=tableRow;horizontal=0;startSize=0;swimlaneHead=0;swimlaneBody=0;fillColor=none;collapsible=0;dropTarget=0;points=[[0,0.5],[1,0.5]];portConstraint=eastwest;top=0;left=0;right=0;bottom=0;" vertex="1" parent="19">
          <mxGeometry y="42" width="120" height="21" as="geometry" />
        </mxCell>
        <mxCell id="24" value="string" style="shape=partialRectangle;connectable=0;fillColor=none;top=0;left=0;bottom=0;right=0;align=left;spacingLeft=2;overflow=hidden;fontSize=11;" vertex="1" parent="23">
          <mxGeometry width="36" height="21" as="geometry" />
        </mxCell>
        <mxCell id="25" value="title" style="shape=partialRectangle;connectable=0;fillColor=none;top=0;left=0;bottom=0;right=0;align=left;spacingLeft=2;overflow=hidden;fontSize=11;" vertex="1" parent="23">
          <mxGeometry width="96" height="21" as="geometry" />
        </mxCell>
        <mxCell id="26" style="shape=tableRow;horizontal=0;startSize=0;swimlaneHead=0;swimlaneBody=0;fillColor=none;collapsible=0;dropTarget=0;points=[[0,0.5],[1,0.5]];portConstraint=eastwest;top=0;left=0;right=0;bottom=0;" vertex="1" parent="19">
          <mxGeometry y="62" width="120" height="21" as="geometry" />
        </mxCell>
        <mxCell id="27" value="string" style="shape=partialRectangle;connectable=0;fillColor=none;top=0;left=0;bottom=0;right=0;align=left;spacingLeft=2;overflow=hidden;fontSize=11;" vertex="1" parent="26">
          <mxGeometry width="36" height="21" as="geometry" />
        </mxCell>
        <mxCell id="28" value="author" style="shape=partialRectangle;connectable=0;fillColor=none;top=0;left=0;bottom=0;right=0;align=left;spacingLeft=2;overflow=hidden;fontSize=11;" vertex="1" parent="26">
          <mxGeometry width="96" height="21" as="geometry" />
        </mxCell>
        <mxCell id="29" style="shape=tableRow;horizontal=0;startSize=0;swimlaneHead=0;swimlaneBody=0;fillColor=none;collapsible=0;dropTarget=0;points=[[0,0.5],[1,0.5]];portConstraint=eastwest;top=0;left=0;right=0;bottom=0;" vertex="1" parent="19">
          <mxGeometry y="83" width="120" height="21" as="geometry" />
        </mxCell>
        <mxCell id="30" value="string" style="shape=partialRectangle;connectable=0;fillColor=none;top=0;left=0;bottom=0;right=0;align=left;spacingLeft=2;overflow=hidden;fontSize=11;" vertex="1" parent="29">
          <mxGeometry width="36" height="21" as="geometry" />
        </mxCell>
        <mxCell id="31" value="publication_year" style="shape=partialRectangle;connectable=0;fillColor=none;top=0;left=0;bottom=0;right=0;align=left;spacingLeft=2;overflow=hidden;fontSize=11;" vertex="1" parent="29">
          <mxGeometry width="96" height="21" as="geometry" />
        </mxCell>
        <mxCell id="32" value="Borrowed" style="shape=table;startSize=25;container=1;collapsible=0;childLayout=tableLayout;fixedRows=1;rowLines=1;fontStyle=1;align=center;resizeLast=1;" vertex="1" parent="1">
          <mxGeometry x="262" y="249" width="116" height="129" as="geometry" />
        </mxCell>
        <mxCell id="33" style="shape=tableRow;horizontal=0;startSize=0;swimlaneHead=0;swimlaneBody=0;fillColor=none;collapsible=0;dropTarget=0;points=[[0,0.5],[1,0.5]];portConstraint=eastwest;top=0;left=0;right=0;bottom=0;" vertex="1" parent="32">
          <mxGeometry y="21" width="116" height="21" as="geometry" />
        </mxCell>
        <mxCell id="34" value="string" style="shape=partialRectangle;connectable=0;fillColor=none;top=0;left=0;bottom=0;right=0;align=left;spacingLeft=2;overflow=hidden;fontSize=11;" vertex="1" parent="33">
          <mxGeometry width="48" height="21" as="geometry" />
        </mxCell>
        <mxCell id="35" value="borrow_id" style="shape=partialRectangle;connectable=0;fillColor=none;top=0;left=0;bottom=0;right=0;align=left;spacingLeft=2;overflow=hidden;fontSize=11;" vertex="1" parent="33">
          <mxGeometry width="68" height="21" as="geometry" />
        </mxCell>
        <mxCell id="36" style="shape=tableRow;horizontal=0;startSize=0;swimlaneHead=0;swimlaneBody=0;fillColor=none;collapsible=0;dropTarget=0;points=[[0,0.5],[1,0.5]];portConstraint=eastwest;top=0;left=0;right=0;bottom=0;" vertex="1" parent="32">
          <mxGeometry y="42" width="116" height="21" as="geometry" />
        </mxCell>
        <mxCell id="37" value="string" style="shape=partialRectangle;connectable=0;fillColor=none;top=0;left=0;bottom=0;right=0;align=left;spacingLeft=2;overflow=hidden;fontSize=11;" vertex="1" parent="36">
          <mxGeometry width="48" height="21" as="geometry" />
        </mxCell>
        <mxCell id="38" value="user_id" style="shape=partialRectangle;connectable=0;fillColor=none;top=0;left=0;bottom=0;right=0;align=left;spacingLeft=2;overflow=hidden;fontSize=11;" vertex="1" parent="36">
          <mxGeometry width="68" height="21" as="geometry" />
        </mxCell>
        <mxCell id="39" style="shape=tableRow;horizontal=0;startSize=0;swimlaneHead=0;swimlaneBody=0;fillColor=none;collapsible=0;dropTarget=0;points=[[0,0.5],[1,0.5]];portConstraint=eastwest;top=0;left=0;right=0;bottom=0;" vertex="1" parent="32">
          <mxGeometry y="62" width="116" height="21" as="geometry" />
        </mxCell>
        <mxCell id="40" value="string" style="shape=partialRectangle;connectable=0;fillColor=none;top=0;left=0;bottom=0;right=0;align=left;spacingLeft=2;overflow=hidden;fontSize=11;" vertex="1" parent="39">
          <mxGeometry width="48" height="21" as="geometry" />
        </mxCell>
        <mxCell id="41" value="book_id" style="shape=partialRectangle;connectable=0;fillColor=none;top=0;left=0;bottom=0;right=0;align=left;spacingLeft=2;overflow=hidden;fontSize=11;" vertex="1" parent="39">
          <mxGeometry width="68" height="21" as="geometry" />
        </mxCell>
        <mxCell id="42" style="shape=tableRow;horizontal=0;startSize=0;swimlaneHead=0;swimlaneBody=0;fillColor=none;collapsible=0;dropTarget=0;points=[[0,0.5],[1,0.5]];portConstraint=eastwest;top=0;left=0;right=0;bottom=0;" vertex="1" parent="32">
          <mxGeometry y="83" width="116" height="21" as="geometry" />
        </mxCell>
        <mxCell id="43" value="datetime" style="shape=partialRectangle;connectable=0;fillColor=none;top=0;left=0;bottom=0;right=0;align=left;spacingLeft=2;overflow=hidden;fontSize=11;" vertex="1" parent="42">
          <mxGeometry width="48" height="21" as="geometry" />
        </mxCell>
        <mxCell id="44" value="borrow_date" style="shape=partialRectangle;connectable=0;fillColor=none;top=0;left=0;bottom=0;right=0;align=left;spacingLeft=2;overflow=hidden;fontSize=11;" vertex="1" parent="42">
          <mxGeometry width="68" height="21" as="geometry" />
        </mxCell>
        <mxCell id="45" style="shape=tableRow;horizontal=0;startSize=0;swimlaneHead=0;swimlaneBody=0;fillColor=none;collapsible=0;dropTarget=0;points=[[0,0.5],[1,0.5]];portConstraint=eastwest;top=0;left=0;right=0;bottom=0;" vertex="1" parent="32">
          <mxGeometry y="104" width="116" height="21" as="geometry" />
        </mxCell>
        <mxCell id="46" value="datetime" style="shape=partialRectangle;connectable=0;fillColor=none;top=0;left=0;bottom=0;right=0;align=left;spacingLeft=2;overflow=hidden;fontSize=11;" vertex="1" parent="45">
          <mxGeometry width="48" height="21" as="geometry" />
        </mxCell>
        <mxCell id="47" value="return_date" style="shape=partialRectangle;connectable=0;fillColor=none;top=0;left=0;bottom=0;right=0;align=left;spacingLeft=2;overflow=hidden;fontSize=11;" vertex="1" parent="45">
          <mxGeometry width="68" height="21" as="geometry" />
        </mxCell>
        <mxCell id="48" value="Category" style="shape=table;startSize=25;container=1;collapsible=0;childLayout=tableLayout;fixedRows=1;rowLines=1;fontStyle=1;align=center;resizeLast=1;" vertex="1" parent="1">
          <mxGeometry x="529" y="281" width="102" height="66" as="geometry" />
        </mxCell>
        <mxCell id="49" style="shape=tableRow;horizontal=0;startSize=0;swimlaneHead=0;swimlaneBody=0;fillColor=none;collapsible=0;dropTarget=0;points=[[0,0.5],[1,0.5]];portConstraint=eastwest;top=0;left=0;right=0;bottom=0;" vertex="1" parent="48">
          <mxGeometry y="21" width="100" height="21" as="geometry" />
        </mxCell>
        <mxCell id="50" value="string" style="shape=partialRectangle;connectable=0;fillColor=none;top=0;left=0;bottom=0;right=0;align=left;spacingLeft=2;overflow=hidden;fontSize=11;" vertex="1" parent="49">
          <mxGeometry width="36" height="21" as="geometry" />
        </mxCell>
        <mxCell id="51" value="category_id" style="shape=partialRectangle;connectable=0;fillColor=none;top=0;left=0;bottom=0;right=0;align=left;spacingLeft=2;overflow=hidden;fontSize=11;" vertex="1" parent="49">
          <mxGeometry width="66" height="21" as="geometry" />
        </mxCell>
        <mxCell id="52" style="shape=tableRow;horizontal=0;startSize=0;swimlaneHead=0;swimlaneBody=0;fillColor=none;collapsible=0;dropTarget=0;points=[[0,0.5],[1,0.5]];portConstraint=eastwest;top=0;left=0;right=0;bottom=0;" vertex="1" parent="48">
          <mxGeometry y="41" width="100" height="21" as="geometry" />
        </mxCell>
        <mxCell id="53" value="string" style="shape=partialRectangle;connectable=0;fillColor=none;top=0;left=0;bottom=0;right=0;align=left;spacingLeft=2;overflow=hidden;fontSize=11;" vertex="1" parent="52">
          <mxGeometry width="36" height="21" as="geometry" />
        </mxCell>
        <mxCell id="54" value="name" style="shape=partialRectangle;connectable=0;fillColor=none;top=0;left=0;bottom=0;right=0;align=left;spacingLeft=2;overflow=hidden;fontSize=11;" vertex="1" parent="52">
          <mxGeometry width="66" height="21" as="geometry" />
        </mxCell>
        <mxCell id="55" value="borrows" style="curved=1;startArrow=ERmandOne;startSize=10;;endArrow=ERmany;endSize=10;;exitX=0.5;exitY=1;entryX=0.2571901822014759;entryY=0;" edge="1" parent="1" source="3" target="32">
          <mxGeometry relative="1" as="geometry">
            <Array as="points">
              <mxPoint x="270" y="199" />
            </Array>
          </mxGeometry>
        </mxCell>
        <mxCell id="56" value="belongs_to" style="curved=1;startArrow=ERmandOne;startSize=10;;endArrow=ERmandOne;endSize=10;;exitX=0.08343193293469635;exitY=0.9953703703703703;entryX=1.001617168558055;entryY=0.008176430022975707;" edge="1" parent="1" source="19" target="32">
          <mxGeometry relative="1" as="geometry">
            <Array as="points">
              <mxPoint x="425" y="199" />
            </Array>
          </mxGeometry>
        </mxCell>
        <mxCell id="57" value="belongs_to" style="curved=1;startArrow=ERmandOne;startSize=10;;endArrow=ERoneToMany;endSize=10;;exitX=0.6339853914449399;exitY=0.9953703703703703;entryX=0.4912282906326593;entryY=-0.007575757575757576;" edge="1" parent="1" source="19" target="48">
          <mxGeometry relative="1" as="geometry">
            <Array as="points">
              <mxPoint x="579" y="199" />
            </Array>
          </mxGeometry>
        </mxCell>
      </root>
    </mxGraphModel>
  </diagram>
</mxfile>
